<svg id="Capa_1" enable-background="new 0 0 546.55 546.55" height="512" viewBox="0 0 546.55 546.55" width="512" xmlns="http://www.w3.org/2000/svg"><path d="m256.195 478.239c-2.719 0-5.454-.651-7.956-1.968-5.604-2.952-9.124-8.773-9.124-15.112v-85.398h-222.035c-9.441 0-17.08-7.639-17.08-17.08v-170.797c0-9.441 7.639-17.08 17.08-17.08h222.036v-85.398c0-6.338 3.519-12.159 9.124-15.112 5.588-2.986 12.376-2.569 17.63 1.034l273.275 187.877c4.637 3.186 7.406 8.456 7.406 14.077s-2.769 10.892-7.406 14.077l-273.276 187.878c-2.902 1.984-6.288 3.002-9.674 3.002zm-222.036-136.638h222.036c9.441 0 17.08 7.639 17.08 17.08v70.004l226.056-155.402-226.056-155.402v70.003c0 9.441-7.639 17.08-17.08 17.08h-222.036z"/></svg>